<svg width="800" height="600" xmlns="http://www.w3.org/2000/svg">
 <!-- Created with Method Draw - http://github.com/duopixel/Method-Draw/ -->
 <g>
  <title>background</title>
  <rect fill="#fff" id="canvas_background" height="602" width="802" y="-1" x="-1"/>
  <g display="none" overflow="visible" y="0" x="0" height="100%" width="100%" id="canvasGrid">
   <rect fill="url(#gridpattern)" stroke-width="0" y="0" x="0" height="100%" width="100%"/>
  </g>
 </g>
 <g>
  <title>Layer 1</title>
  <path stroke="#0f0f00" id="svg_2" d="m357.32513,567.78644l0,0c-192.50685,0 -348.61715,-120.62683 -348.61715,-269.54752c0,-148.92072 156.1103,-269.66415 348.61715,-269.66415l0,0c-109.77431,63.69003 -174.23558,163.59161 -174.23558,269.66415s64.46127,205.85764 174.23558,269.54752z" stroke-width="1.5" fill="#fff"/>
  <text stroke="#0f0f00" transform="matrix(11.7246 0 0 13.7972 -3791.28 -2949.97)" xml:space="preserve" text-anchor="start" font-family="Helvetica, Arial, sans-serif" font-size="24" id="svg_5" y="243.77406" x="345.87371" fill-opacity="null" stroke-width="0" fill="#000000">hris</text>
  <path stroke="#0f0f00" id="svg_6" d="m544.64716,163.94002c-15.409,0 -27.91785,12.82982 -27.91785,28.6545c0,15.82469 12.50885,28.65443 27.91785,28.65443c15.40894,0 27.91797,-12.82974 27.91797,-28.65443c0,-15.82468 -12.48737,-28.6545 -27.91797,-28.6545zm0,50.03181c-11.49188,-0.03049 -20.79773,-9.57062 -20.8194,-21.37732c0.02167,-11.79314 9.32751,-21.34688 20.8194,-21.36722c11.51343,0.02034 20.79779,9.57408 20.81946,21.36722c-0.02167,11.8067 -9.30603,21.34683 -20.81946,21.37732zm0,-51.93918c1.96948,0 3.54919,-1.63295 3.54919,-3.64532l0,-17.65753c0,-2.009 -1.57971,-3.64194 -3.54919,-3.64194c-1.94769,0 -3.54926,1.63293 -3.52759,3.65549l0,17.64398c0,1.99883 1.5799,3.64532 3.52759,3.64532zm11.40527,2.32068c0.4328,0.18973 0.90887,0.2778 1.34174,0.2778c1.40668,0 2.72675,-0.84358 3.28955,-2.2563l6.57904,-16.31255c0.73584,-1.85654 -0.10809,-3.97734 -1.92609,-4.75316c-1.79626,-0.76566 -3.87378,0.12196 -4.63129,1.97511l-6.5791,16.31593c-0.73578,1.85316 0.10815,3.9875 1.92615,4.75316zm9.65216,6.61987c0.69257,0.70807 1.60144,1.0638 2.5105,1.0638s1.81787,-0.35573 2.51044,-1.0638l12.1626,-12.49442c1.38513,-1.41273 1.38513,-3.72325 0,-5.14276c-1.38501,-1.42291 -3.63574,-1.42291 -5.02075,0l-12.16278,12.49442c-1.38513,1.41951 -1.38513,3.71988 0,5.14276zm6.47101,9.91628c0.56256,1.39919 1.88275,2.24275 3.26776,2.24275c0.45459,0 0.909,-0.08809 1.3634,-0.2778l15.88513,-6.76218c1.81787,-0.76564 2.6618,-2.89999 1.92603,-4.75314s-2.83508,-2.74417 -4.65283,-1.96835l-15.88519,6.75539c-1.7962,0.7758 -2.6618,2.90678 -1.9043,4.76334zm23.00507,8.03938l-17.2052,0.01355c-1.94769,0 -3.54926,1.62955 -3.52759,3.64194c0,2.009 1.5799,3.63179 3.52759,3.63179l17.2052,0c1.96936,0 3.54926,-1.64311 3.54926,-3.64534c0,-2.009 -1.5799,-3.64194 -3.54926,-3.64194zm-2.46722,20.12387l-15.90668,-6.752c-1.79614,-0.76567 -3.8739,0.11179 -4.63116,1.97852c-0.73602,1.85315 0.10809,3.9841 1.92596,4.75316l15.88519,6.75192c0.45441,0.17618 0.90887,0.26425 1.36334,0.26425c1.38501,0 2.7052,-0.84357 3.28949,-2.24275c0.73578,-1.85316 -0.12982,-3.98744 -1.92615,-4.7531zm-21.96625,5.1427c-1.38513,-1.42291 -3.63593,-1.42291 -5.02087,0c-1.38513,1.4229 -1.38513,3.71985 0,5.14276l12.18427,12.48087c0.69257,0.71146 1.60144,1.06717 2.51044,1.06717s1.81787,-0.35571 2.51044,-1.06717c1.38501,-1.43307 1.36353,-3.73001 0,-5.15292l-12.18427,-12.4707zm-10.04181,8.59499c-0.75751,-1.85315 -2.81348,-2.73061 -4.63141,-1.96495c-1.81787,0.76566 -2.66199,2.89999 -1.92596,4.76332l6.60065,16.30577c0.56268,1.39917 1.88275,2.24275 3.28961,2.24275c0.45441,0 0.90887,-0.09146 1.34174,-0.27779c1.81793,-0.76566 2.68353,-2.90001 1.92603,-4.76672l-6.60065,-16.30238zm-16.01495,0.37944c-1.96948,0 -3.54919,1.63295 -3.54919,3.64194l0.02155,17.64737c0,2.009 1.57996,3.64194 3.54932,3.64194c1.94769,0 3.52759,-1.63293 3.52759,-3.64194l0,-17.65753c0,-1.99883 -1.60156,-3.63177 -3.54926,-3.63177zm-11.40515,-2.31052c-1.79633,-0.76566 -3.8739,0.1118 -4.63141,1.96497l-6.55737,16.31592c-0.75751,1.86331 0.10815,3.99768 1.92603,4.76334c0.43286,0.18971 0.88733,0.27782 1.34174,0.27782c1.38519,0 2.72693,-0.85715 3.28961,-2.25633l6.5575,-16.32269c0.75751,-1.85657 -0.10822,-3.97734 -1.92609,-4.74301zm-9.67401,-6.61987c-1.38489,-1.4229 -3.61401,-1.40935 -4.99915,0.01016l-12.16263,12.49442c-1.38516,1.4229 -1.36343,3.71986 0.02158,5.14279c0.6925,0.71144 1.5799,1.06717 2.48892,1.06717c0.90884,0 1.81784,-0.35573 2.51028,-1.06717l12.16272,-12.49443c1.38519,-1.4229 1.38519,-3.73003 -0.02173,-5.15294zm-6.44922,-9.89586c-0.75732,-1.85316 -2.83502,-2.74077 -4.65295,-1.96495l-15.8634,6.76215c-1.81787,0.77922 -2.68353,2.91011 -1.92606,4.76666c0.56259,1.39919 1.88278,2.24277 3.28952,2.24277c0.43289,0 0.909,-0.0881 1.34174,-0.27782l15.88513,-6.77563c1.81787,-0.77583 2.66199,-2.91017 1.92603,-4.75317zm-2.29401,-11.69489c0,-2.009 -1.57977,-3.63179 -3.54919,-3.63179l-17.2052,0.02371c-1.94785,0 -3.54926,1.62279 -3.54926,3.64195c0.02167,1.99884 1.60141,3.63179 3.54926,3.63179l17.2052,-0.02032c1.96942,0 3.54919,-1.6465 3.54919,-3.64534zm-18.28729,-16.45821l15.90668,6.73166c0.43292,0.19989 0.88733,0.2778 1.34192,0.2778c1.40668,0 2.72675,-0.84357 3.28949,-2.24275c0.75745,-1.86671 -0.10815,-4.00105 -1.92603,-4.75317l-15.9068,-6.74182c-1.81793,-0.75551 -3.87396,0.12195 -4.63129,1.97511c-0.75751,1.85654 0.12988,3.97734 1.92603,4.75317zm21.96643,-5.1631c0.69257,0.71144 1.5799,1.06717 2.48877,1.06717s1.81793,-0.35573 2.51044,-1.07733c1.38513,-1.41273 1.38513,-3.72325 0,-5.14278l-12.18427,-12.46054c-1.38498,-1.4229 -3.63574,-1.40935 -5.02094,0.01016c-1.38495,1.40935 -1.3634,3.71988 0.02173,5.14278l12.18427,12.46054zm10.02008,-8.60855c0.56274,1.39919 1.88281,2.2326 3.26794,2.2326c0.45447,0 0.90887,-0.08809 1.36353,-0.27782c1.81781,-0.77582 2.66193,-2.91017 1.90442,-4.75316l-6.60077,-16.30237c-0.75745,-1.85316 -2.83502,-2.73062 -4.63141,-1.96497c-1.81787,0.77582 -2.6618,2.91017 -1.92603,4.76334l6.62231,16.30237z" fill-opacity="null" stroke-width="1.5" fill="#fff"/>
 </g>
</svg>